<?xml version="1.0" encoding="utf-8" ?>
<svg xmlns="http://www.w3.org/2000/svg" xmlns:xlink="http://www.w3.org/1999/xlink" width="512" height="512">
	<path d="M256.125 487.259L67.0267 487.264C56.7992 487.255 47.2439 485.45 38.948 478.873C23.9061 466.949 18.8983 446.309 26.5403 428.819C29.9849 420.936 34.718 413.488 38.7691 405.894L80.5425 328.969L150.801 202.018L206.098 105.29L247.107 35.4585C249.918 30.8794 252.506 25.8732 255.84 21.6649C258.918 25.2598 261.339 29.8257 263.738 33.9107L396.258 266.463L469.731 400.762C478.747 417.656 491.294 433.253 488.588 453.507C485.834 474.12 467.468 487.189 447.412 487.244L256.125 487.259ZM255.969 125.213L152.764 309.25L87.0849 428.971C86.3372 430.211 86.0305 431.567 84.8636 432.483L255.889 432.522L426.683 432.177C424.611 429.629 422.975 426.232 421.314 423.395L409.761 403.024L357.472 307.224L335.776 267.197L255.969 125.213Z"/>
	<path d="M254.36 352.023L190.988 351.959C192.036 350.788 192.324 348.992 193.082 347.586L245.747 252C249.001 246.256 252.215 240.535 255.929 235.072C256.846 237.818 258.678 240.409 260.074 242.949L313.143 340.947C313.814 342.183 318.234 351.109 318.587 351.526L254.36 352.023Z"/>
	<path d="M255.882 410.042L170.724 410.013C167.197 410.011 163.2 410.365 159.758 409.572C160.344 407.391 161.646 405.308 162.747 403.344L178.947 372.597C181.377 372.202 184.167 372.436 186.646 372.431L254.939 372.417L330.589 372.496L350.384 409.659C349.591 410.139 346.575 409.977 345.536 409.996L255.882 410.042Z"/>
</svg>
